<svg width="25" height="24" viewBox="0 0 25 24" fill="none" xmlns="http://www.w3.org/2000/svg">
<path d="M11.2081 12C11.2081 12.2984 11.3267 12.5845 11.5376 12.7955C11.7486 13.0065 12.0348 13.125 12.3331 13.125C12.6315 13.125 12.9177 13.0065 13.1286 12.7955C13.3396 12.5845 13.4581 12.2984 13.4581 12C13.4581 11.7016 13.3396 11.4155 13.1286 11.2045C12.9177 10.9935 12.6315 10.875 12.3331 10.875C12.0348 10.875 11.7486 10.9935 11.5376 11.2045C11.3267 11.4155 11.2081 11.7016 11.2081 12ZM15.8956 12C15.8956 12.2984 16.0142 12.5845 16.2251 12.7955C16.4361 13.0065 16.7223 13.125 17.0206 13.125C17.319 13.125 17.6052 13.0065 17.8161 12.7955C18.0271 12.5845 18.1456 12.2984 18.1456 12C18.1456 11.7016 18.0271 11.4155 17.8161 11.2045C17.6052 10.9935 17.319 10.875 17.0206 10.875C16.7223 10.875 16.4361 10.9935 16.2251 11.2045C16.0142 11.4155 15.8956 11.7016 15.8956 12ZM6.52064 12C6.52064 12.2984 6.63917 12.5845 6.85015 12.7955C7.06112 13.0065 7.34727 13.125 7.64564 13.125C7.94401 13.125 8.23016 13.0065 8.44114 12.7955C8.65211 12.5845 8.77064 12.2984 8.77064 12C8.77064 11.7016 8.65211 11.4155 8.44114 11.2045C8.23016 10.9935 7.94401 10.875 7.64564 10.875C7.34727 10.875 7.06112 10.9935 6.85015 11.2045C6.63917 11.4155 6.52064 11.7016 6.52064 12ZM22.0175 7.93125C21.4878 6.67266 20.7285 5.54297 19.7605 4.57266C18.7993 3.60798 17.6582 2.84117 16.4019 2.31563C15.1128 1.77422 13.7441 1.5 12.3331 1.5H12.2863C10.866 1.50703 9.49017 1.78828 8.19642 2.34141C6.95087 2.87234 5.8205 3.64052 4.8683 4.60312C3.9097 5.57109 3.15736 6.69609 2.63705 7.95C2.09798 9.24844 1.82611 10.6289 1.83314 12.0492C1.84109 13.6769 2.22617 15.2806 2.95814 16.7344V20.2969C2.95814 20.5828 3.07173 20.857 3.27392 21.0592C3.4761 21.2614 3.75033 21.375 4.03627 21.375H7.60111C9.05492 22.107 10.6586 22.492 12.2863 22.5H12.3355C13.7394 22.5 15.1011 22.2281 16.3831 21.6961C17.6331 21.1768 18.7699 20.419 19.73 19.4648C20.698 18.5063 21.4597 17.3859 21.9917 16.1367C22.5449 14.843 22.8261 13.4672 22.8331 12.0469C22.8402 10.6195 22.5636 9.23438 22.0175 7.93125ZM18.4761 18.1969C16.8331 19.8234 14.6535 20.7188 12.3331 20.7188H12.2933C10.88 20.7117 9.47611 20.3602 8.23627 19.6992L8.03939 19.5938H4.73939V16.2938L4.63392 16.0969C3.97298 14.857 3.62142 13.4531 3.61439 12.0398C3.60502 9.70312 4.49798 7.50937 6.13627 5.85703C7.7722 4.20469 9.95892 3.29062 12.2956 3.28125H12.3355C13.5074 3.28125 14.6441 3.50859 15.7152 3.95859C16.7605 4.39687 17.698 5.02734 18.5042 5.83359C19.3081 6.6375 19.941 7.57734 20.3792 8.62266C20.8339 9.70547 21.0613 10.8539 21.0566 12.0398C21.0425 14.3742 20.1261 16.5609 18.4761 18.1969Z" fill="#67FFBB"/>
</svg>
