<svg width="14" height="18" viewBox="0 0 14 18" fill="none" xmlns="http://www.w3.org/2000/svg">
<path d="M4.35101 6.29629L4.34951 6.29704L4.34726 6.29854L4.35101 6.29629ZM11.8165 6.15604C11.7643 6.1057 11.7064 6.06165 11.644 6.02479C11.5556 5.97276 11.4575 5.9394 11.3557 5.92679C11.2539 5.91418 11.1507 5.92258 11.0522 5.95147C10.9538 5.98036 10.8624 6.02913 10.7836 6.09476C10.7048 6.16039 10.6402 6.24149 10.594 6.33304C10.3357 6.84223 9.97939 7.2954 9.54551 7.66654C9.61204 7.29271 9.64567 6.91376 9.64601 6.53404C9.64744 5.37915 9.34281 4.2445 8.76314 3.24561C8.18347 2.24673 7.34945 1.41929 6.34601 0.847544C6.23544 0.784715 6.1107 0.751038 5.98353 0.749677C5.85636 0.748316 5.73093 0.779316 5.61903 0.839764C5.50713 0.900212 5.41245 0.988121 5.34387 1.09523C5.2753 1.20233 5.23508 1.32512 5.22701 1.45204C5.18502 2.16312 4.99912 2.85827 4.68056 3.49538C4.36201 4.13249 3.91743 4.69831 3.37376 5.15854L3.20126 5.29879C2.63247 5.68148 2.12903 6.15327 1.71026 6.69604C1.05947 7.51588 0.608655 8.47608 0.393576 9.50048C0.178496 10.5249 0.205067 11.5853 0.471183 12.5977C0.737299 13.61 1.23564 14.5464 1.92667 15.3326C2.61771 16.1188 3.48244 16.7332 4.45226 17.127C4.56613 17.1734 4.68964 17.191 4.81192 17.1784C4.93421 17.1658 5.05152 17.1234 5.15354 17.0547C5.25555 16.9861 5.33914 16.8935 5.39694 16.785C5.45474 16.6765 5.48499 16.5555 5.48501 16.4325C5.48439 16.3531 5.47175 16.2742 5.44751 16.1985C5.27971 15.5678 5.23138 14.9113 5.30501 14.2628C6.01487 15.6012 7.15417 16.6621 8.53976 17.2748C8.70882 17.3504 8.8999 17.3605 9.07601 17.3033C10.1706 16.9499 11.1567 16.3226 11.9406 15.4808C12.7244 14.639 13.2801 13.6108 13.5547 12.4939C13.8293 11.3769 13.8137 10.2083 13.5095 9.09899C13.2053 7.98972 12.6225 6.97666 11.8165 6.15604ZM8.88776 15.7793C8.23398 15.448 7.65724 14.9829 7.19503 14.4141C6.73283 13.8452 6.39551 13.1855 6.20501 12.4778C6.14677 12.2395 6.1017 11.9981 6.07001 11.7548C6.04867 11.5999 5.97943 11.4555 5.87199 11.3419C5.76454 11.2282 5.62425 11.151 5.47076 11.121C5.42357 11.1119 5.37559 11.1074 5.32751 11.1075C5.19574 11.1074 5.06625 11.142 4.9521 11.2078C4.83794 11.2737 4.74315 11.3684 4.67726 11.4825C4.0551 12.556 3.74229 13.7807 3.77351 15.021C3.22613 14.5956 2.76865 14.0657 2.42758 13.4621C2.0865 12.8585 1.86863 12.1932 1.78659 11.5048C1.70455 10.8164 1.75997 10.1185 1.94964 9.45165C2.13931 8.78481 2.45945 8.16224 2.89151 7.62004C3.21958 7.19392 3.61533 6.82452 4.06301 6.52654C4.0826 6.51398 4.10139 6.5002 4.11926 6.48529C4.11926 6.48529 4.34126 6.30154 4.34876 6.29779C5.41766 5.39408 6.17799 4.17939 6.52376 2.82304C7.34084 3.57857 7.88558 4.58274 8.07341 5.67962C8.26125 6.7765 8.08165 7.9047 7.56251 8.88904C7.49381 9.02043 7.46559 9.16923 7.48142 9.31664C7.49724 9.46406 7.55641 9.60347 7.65143 9.71728C7.74646 9.83109 7.87308 9.91417 8.01531 9.95605C8.15753 9.99792 8.30898 9.9967 8.45051 9.95254C9.59931 9.59226 10.6102 8.88869 11.347 7.93654C11.79 8.59072 12.0797 9.33645 12.1944 10.1181C12.3091 10.8998 12.2459 11.6974 12.0095 12.4512C11.7731 13.2051 11.3696 13.8959 10.8291 14.4722C10.2886 15.0484 9.625 15.4952 8.88776 15.7793Z" fill="white"/>
</svg>
