<svg width="20" height="20" viewBox="0 0 20 20" fill="none" xmlns="http://www.w3.org/2000/svg">
<rect width="20" height="20" rx="4" fill="#67FFBB"/>
<path d="M16.4763 15.1499C16.5129 15.0465 16.5287 14.9369 16.5229 14.8273L16.3014 11.8894C16.2848 11.6681 16.1809 11.4625 16.0126 11.3178C15.8443 11.1731 15.6255 11.1012 15.4042 11.1179C15.1829 11.1346 14.9773 11.2385 14.8326 11.4067C14.6879 11.575 14.616 11.7938 14.6327 12.0151L14.709 12.949L11.8087 10.4552C11.6411 10.3111 11.4231 10.2395 11.2027 10.2561C10.9824 10.2727 10.7776 10.3762 10.6335 10.5438C10.4894 10.7113 10.4178 10.9293 10.4344 11.1497C10.451 11.3701 10.5545 11.5748 10.7221 11.7189L13.6224 14.2127L12.6876 14.2772C12.5779 14.2851 12.4708 14.3145 12.3725 14.3639C12.2742 14.4134 12.1867 14.4817 12.115 14.5652C12.0433 14.6486 11.9888 14.7454 11.9546 14.8499C11.9205 14.9545 11.9074 15.0648 11.9162 15.1745C11.924 15.2842 11.9534 15.3913 12.0029 15.4896C12.0523 15.5879 12.1207 15.6754 12.2041 15.7472C12.2875 15.8189 12.3843 15.8734 12.4889 15.9075C12.5934 15.9416 12.7037 15.9547 12.8134 15.946L15.7514 15.7246C15.8606 15.7139 15.9666 15.6819 16.0633 15.6302C16.2588 15.5307 16.4072 15.3581 16.4763 15.1499ZM9.28119 8.28196L6.38089 5.78819L7.3156 5.72365C7.53689 5.70698 7.74249 5.60308 7.88718 5.43481C8.03186 5.26654 8.10377 5.04769 8.08709 4.8264C8.07042 4.6051 7.96652 4.3995 7.79825 4.25482C7.62998 4.11014 7.41113 4.03822 7.18984 4.0549L4.25189 4.27632C4.14269 4.28695 4.03667 4.31903 3.9399 4.37074C3.74443 4.47024 3.59607 4.64279 3.52699 4.85096C3.49037 4.95438 3.47454 5.06402 3.48039 5.17357L3.70181 8.11152C3.70963 8.22125 3.7391 8.32835 3.78851 8.42664C3.83793 8.52492 3.90632 8.61245 3.98973 8.68418C4.07315 8.7559 4.16994 8.8104 4.27452 8.84452C4.3791 8.87865 4.48941 8.89173 4.59907 8.88302C4.7088 8.8752 4.8159 8.84573 4.91419 8.79632C5.01247 8.7469 5.1 8.67851 5.17172 8.5951C5.24345 8.51168 5.29794 8.41489 5.33207 8.31031C5.3662 8.20573 5.37928 8.09542 5.37056 7.98576L5.29428 7.05193L8.19457 9.54571C8.36216 9.6898 8.58012 9.76142 8.8005 9.74481C9.02089 9.7282 9.22566 9.62472 9.36975 9.45714C9.51385 9.28956 9.58546 9.0716 9.56886 8.85121C9.55225 8.63082 9.44877 8.42606 9.28119 8.28196Z" fill="#2D3047"/>
</svg>
