<svg width="25" height="24" viewBox="0 0 25 24" fill="none" xmlns="http://www.w3.org/2000/svg">
<g clip-path="url(#clip0_1_751)">
<path d="M22.1646 11.664C21.3021 7.76491 20.0228 5.27772 17.9725 4.67163C17.5754 4.55579 17.1637 4.498 16.75 4.50007C15.4896 4.50007 14.4949 5.25007 12.25 5.25007C10.0052 5.25007 9.00862 4.50007 7.75002 4.50007C7.31912 4.49778 6.89 4.55552 6.47502 4.67163C4.4219 5.27772 3.15346 7.76725 2.28112 11.664C1.39049 15.6441 1.55174 18.789 3.29268 19.3927C4.51143 19.8146 5.60127 18.9423 6.63346 17.6583C7.80534 16.1958 9.24862 15.7458 12.25 15.7458C15.2514 15.7458 16.6385 16.1958 17.8122 17.6583C18.8435 18.9432 19.9736 19.8048 21.16 19.4002C23.0828 18.7435 23.0556 15.691 22.1646 11.664Z" stroke="#ACACAC" stroke-opacity="0.4" stroke-width="2" stroke-miterlimit="10"/>
<path d="M13.9375 11.4375C14.4553 11.4375 14.875 11.0178 14.875 10.5C14.875 9.98223 14.4553 9.5625 13.9375 9.5625C13.4197 9.5625 13 9.98223 13 10.5C13 11.0178 13.4197 11.4375 13.9375 11.4375Z" fill="#ACACAC" fill-opacity="0.4"/>
<path d="M13.9375 9.57812C14.4466 9.57812 14.8594 9.99086 14.8594 10.5C14.8594 11.0091 14.4466 11.4219 13.9375 11.4219C13.4284 11.4219 13.0156 11.0091 13.0156 10.5C13.0156 9.99086 13.4284 9.57812 13.9375 9.57812Z" stroke="#ACACAC" stroke-opacity="0.4" stroke-width="0.03125"/>
<path d="M16 13.5C15.8145 13.5 15.6331 13.445 15.4789 13.3418C15.3247 13.2387 15.2045 13.0922 15.1336 12.9207C15.0628 12.7493 15.0443 12.5607 15.0807 12.3787C15.1171 12.1968 15.2066 12.0298 15.3379 11.8988C15.4693 11.7677 15.6365 11.6786 15.8185 11.6427C16.0006 11.6068 16.1891 11.6257 16.3604 11.697C16.5317 11.7684 16.6779 11.8889 16.7806 12.0434C16.8834 12.1978 16.938 12.3793 16.9375 12.5648C16.9369 12.8131 16.8378 13.0509 16.6621 13.2262C16.4863 13.4016 16.2482 13.5 16 13.5Z" fill="#ACACAC" fill-opacity="0.4"/>
<path d="M15.8213 11.6582C16.0003 11.6229 16.1861 11.6418 16.3545 11.7119C16.5227 11.782 16.6666 11.9 16.7676 12.0518C16.8685 12.2036 16.9223 12.3821 16.9219 12.5645C16.9213 12.8084 16.824 13.0425 16.6514 13.2148C16.4785 13.3872 16.2441 13.4844 16 13.4844C15.8176 13.4844 15.639 13.4305 15.4873 13.3291C15.3358 13.2278 15.2182 13.0834 15.1484 12.915C15.0787 12.7465 15.06 12.5607 15.0957 12.3818C15.1314 12.2031 15.2197 12.0389 15.3486 11.9102C15.4777 11.7814 15.6424 11.6936 15.8213 11.6582Z" stroke="#ACACAC" stroke-opacity="0.4" stroke-width="0.03125"/>
<path d="M16 9.375C16.5178 9.375 16.9375 8.95527 16.9375 8.4375C16.9375 7.91973 16.5178 7.5 16 7.5C15.4822 7.5 15.0625 7.91973 15.0625 8.4375C15.0625 8.95527 15.4822 9.375 16 9.375Z" fill="#ACACAC" fill-opacity="0.4"/>
<path d="M16 7.51562C16.5091 7.51562 16.9219 7.92836 16.9219 8.4375C16.9219 8.94664 16.5091 9.35938 16 9.35938C15.4909 9.35938 15.0781 8.94664 15.0781 8.4375C15.0781 7.92836 15.4909 7.51562 16 7.51562Z" stroke="#ACACAC" stroke-opacity="0.4" stroke-width="0.03125"/>
<path d="M18.0625 11.4375C18.5803 11.4375 19 11.0178 19 10.5C19 9.98223 18.5803 9.5625 18.0625 9.5625C17.5447 9.5625 17.125 9.98223 17.125 10.5C17.125 11.0178 17.5447 11.4375 18.0625 11.4375Z" fill="#ACACAC" fill-opacity="0.4"/>
<path d="M18.0625 9.57812C18.5716 9.57812 18.9844 9.99086 18.9844 10.5C18.9844 11.0091 18.5716 11.4219 18.0625 11.4219C17.5534 11.4219 17.1406 11.0091 17.1406 10.5C17.1406 9.99086 17.5534 9.57812 18.0625 9.57812Z" stroke="#ACACAC" stroke-opacity="0.4" stroke-width="0.03125"/>
<path d="M7.75 8.25V12.75V8.25ZM10 10.5H5.5H10Z" fill="#ACACAC" fill-opacity="0.4"/>
<path d="M7.75 8.25V12.75M10 10.5H5.5" stroke="#ACACAC" stroke-opacity="0.4" stroke-linecap="round" stroke-linejoin="round"/>
</g>
<defs>
<clipPath id="clip0_1_751">
<rect width="24" height="24" fill="white" transform="translate(0.25)"/>
</clipPath>
</defs>
</svg>
