<svg width="25" height="24" viewBox="0 0 25 24" fill="none" xmlns="http://www.w3.org/2000/svg">
<g clip-path="url(#clip0_1_986)">
<path fill-rule="evenodd" clip-rule="evenodd" d="M24.333 12.2728C24.333 11.4219 24.2567 10.6037 24.1149 9.81824H12.813V14.4601H19.2712C18.993 15.9601 18.1476 17.231 16.8767 18.0819V21.0928H20.7549C23.024 19.0037 24.333 15.9273 24.333 12.2728Z" fill="#4285F4"/>
<path fill-rule="evenodd" clip-rule="evenodd" d="M12.8131 24C16.0531 24 18.7694 22.9255 20.7549 21.0928L16.8767 18.0818C15.8021 18.8018 14.4276 19.2273 12.8131 19.2273C9.6876 19.2273 7.04214 17.1164 6.09851 14.28H2.08942V17.3891C4.06396 21.3109 8.12214 24 12.8131 24Z" fill="#34A853"/>
<path fill-rule="evenodd" clip-rule="evenodd" d="M6.0985 14.2801C5.8585 13.5601 5.72214 12.791 5.72214 12.0001C5.72214 11.2091 5.8585 10.4401 6.0985 9.72005V6.61096H2.08941C1.27669 8.23096 0.813049 10.0637 0.813049 12.0001C0.813049 13.9364 1.27669 15.7691 2.08941 17.3891L6.0985 14.2801Z" fill="#FBBC05"/>
<path fill-rule="evenodd" clip-rule="evenodd" d="M12.8131 4.77273C14.5749 4.77273 16.1567 5.37818 17.4003 6.56727L20.8421 3.12545C18.764 1.18909 16.0476 0 12.8131 0C8.12214 0 4.06396 2.68909 2.08942 6.61091L6.09851 9.72C7.04214 6.88364 9.6876 4.77273 12.8131 4.77273Z" fill="#EA4335"/>
</g>
<defs>
<clipPath id="clip0_1_986">
<rect x="0.813049" width="24" height="24" rx="6" fill="white"/>
</clipPath>
</defs>
</svg>
