<svg width="21" height="21" viewBox="0 0 21 21" fill="none" xmlns="http://www.w3.org/2000/svg">
<path fill-rule="evenodd" clip-rule="evenodd" d="M8.68438 1.58514C9.24191 1.05554 9.98152 0.760254 10.7505 0.760254C11.5195 0.760254 12.2592 1.05558 12.8168 1.58526L19.1937 7.64219C19.6854 8.10929 20.077 8.6716 20.3445 9.29479C20.612 9.91797 20.75 10.5891 20.75 11.2673V18.0003C20.75 18.7959 20.4339 19.559 19.8713 20.1216C19.3087 20.6842 18.5457 21.0003 17.75 21.0003H3.75C2.95435 21.0003 2.19129 20.6842 1.62868 20.1216C1.06607 19.559 0.75 18.7959 0.75 18.0003V11.2673C0.749999 10.5891 0.887965 9.91797 1.15551 9.29479C1.42304 8.6716 1.81457 8.10936 2.30625 7.64226L8.68438 1.58514C8.68442 1.5851 8.68433 1.58518 8.68438 1.58514ZM8.75 19.0003H12.75V14.0003C12.75 13.735 12.6446 13.4807 12.4571 13.2931C12.2696 13.1056 12.0152 13.0003 11.75 13.0003H9.75C9.48478 13.0003 9.23043 13.1056 9.04289 13.2931C8.85536 13.4807 8.75 13.735 8.75 14.0003V19.0003ZM14.75 19.0003V14.0003C14.75 13.2046 14.4339 12.4415 13.8713 11.8789C13.3087 11.3163 12.5457 11.0003 11.75 11.0003H9.75C8.95435 11.0003 8.19129 11.3163 7.62868 11.8789C7.06607 12.4415 6.75 13.2046 6.75 14.0003V19.0003H3.75C3.48478 19.0003 3.23043 18.8949 3.04289 18.7074C2.85536 18.5198 2.75 18.2655 2.75 18.0003V11.2673C2.75 10.8603 2.83278 10.4577 2.9933 10.0838C3.1538 9.70992 3.38867 9.37261 3.68362 9.09237C3.68358 9.09241 3.68367 9.09233 3.68362 9.09237L10.0616 3.03537C10.2475 2.85882 10.4942 2.76025 10.7505 2.76025C11.0068 2.76025 11.2534 2.8587 11.4392 3.03525L17.8162 9.09225C17.8162 9.09223 17.8163 9.09228 17.8162 9.09225C18.1112 9.3725 18.3462 9.70989 18.5067 10.0838C18.6672 10.4577 18.75 10.8603 18.75 11.2673V18.0003C18.75 18.2655 18.6446 18.5198 18.4571 18.7074C18.2696 18.8949 18.0152 19.0003 17.75 19.0003H14.75Z" fill="#67FFBB"/>
</svg>
