<svg width="15" height="20" viewBox="0 0 15 20" fill="none" xmlns="http://www.w3.org/2000/svg">
<path fill-rule="evenodd" clip-rule="evenodd" d="M2.25 16.0002V4.00019L5.29689 2.68738V17.313L2.25 16.0002ZM0.25 3.1908C0.25 2.57464 0.700962 2.05149 1.3102 1.96056L5.25 0.50019C6.00169 0.387925 7.25 0.483918 7.25 1.24392V18.756C7.25 19.516 6.50169 19.6123 5.75 19.5L1.3102 18.0394C0.700962 17.9484 0.25 17.4253 0.25 16.8091V3.1908ZM9.25 18.4334L9.7842 18.5953C10.5359 18.7076 11.25 18.1252 11.25 17.3652V2.17149C11.25 1.4115 10.5017 0.887843 9.75 0.999962L9.25 1.10332V18.4334ZM12.25 17.4875L13.211 17.6682C14.25 17.6682 14.25 17 14.25 16.3758V3.49996C14.25 2.99996 14.25 2.33185 13.211 2.33185L12.25 2.4753V17.4875Z" fill="#ACACAC" fill-opacity="0.4"/>
</svg>
