<svg width="16" height="16" viewBox="0 0 16 16" fill="none" xmlns="http://www.w3.org/2000/svg">
<path d="M14.8775 0.544969C14.3399 0.452369 13.7955 0.404704 13.25 0.402469C11.3888 0.400943 9.56637 0.934649 8 1.93997C6.42961 0.947849 4.60749 0.427242 2.75 0.439969C2.20449 0.442204 1.66011 0.489869 1.1225 0.582469C0.946407 0.612828 0.786938 0.705063 0.672812 0.842564C0.558687 0.980065 0.497405 1.1538 0.500002 1.33247V10.3325C0.498396 10.4427 0.521097 10.5519 0.56649 10.6523C0.611883 10.7527 0.678852 10.8419 0.762632 10.9135C0.846413 10.9851 0.944945 11.0374 1.05122 11.0666C1.15749 11.0958 1.2689 11.1012 1.3775 11.0825C2.45227 10.8964 3.5534 10.9273 4.61605 11.1733C5.6787 11.4193 6.68137 11.8755 7.565 12.515L7.655 12.5675H7.7375C7.82068 12.6021 7.90989 12.62 8 12.62C8.09011 12.62 8.17933 12.6021 8.2625 12.5675H8.345L8.435 12.515C9.31247 11.8612 10.3123 11.3902 11.3751 11.13C12.438 10.8697 13.5422 10.8255 14.6225 11C14.7311 11.0187 14.8425 11.0133 14.9488 10.9841C15.0551 10.9549 15.1536 10.9026 15.2374 10.831C15.3212 10.7594 15.3881 10.6702 15.4335 10.5698C15.4789 10.4694 15.5016 10.3602 15.5 10.25V1.24997C15.4922 1.07908 15.4262 0.916002 15.313 0.787772C15.1998 0.659543 15.0461 0.573872 14.8775 0.544969ZM7.25 10.5125C5.86241 9.78249 4.31789 9.4015 2.75 9.40247H2V1.90247C2.2498 1.88807 2.50021 1.88807 2.75 1.90247C4.35004 1.9007 5.91516 2.37024 7.25 3.25247V10.5125ZM14 9.43247H13.25C11.6821 9.4315 10.1376 9.81248 8.75 10.5425V3.25247C10.0848 2.37024 11.65 1.9007 13.25 1.90247C13.4998 1.88807 13.7502 1.88807 14 1.90247V9.43247ZM14.8775 12.545C14.3399 12.4524 13.7955 12.4047 13.25 12.4025C11.3888 12.4009 9.56637 12.9346 8 13.94C6.43364 12.9346 4.61123 12.4009 2.75 12.4025C2.20449 12.4047 1.66011 12.4524 1.1225 12.545C1.02487 12.5605 0.931269 12.5951 0.847074 12.6469C0.762879 12.6987 0.689753 12.7666 0.631902 12.8468C0.574051 12.9269 0.532617 13.0177 0.50998 13.114C0.487344 13.2102 0.483953 13.3099 0.500002 13.4075C0.538116 13.6022 0.65187 13.774 0.816345 13.885C0.98082 13.9961 1.18261 14.0374 1.3775 14C2.45227 13.8139 3.5534 13.8448 4.61605 14.0908C5.6787 14.3368 6.68137 14.793 7.565 15.4325C7.69202 15.5229 7.84407 15.5715 8 15.5715C8.15593 15.5715 8.30798 15.5229 8.435 15.4325C9.31863 14.793 10.3213 14.3368 11.384 14.0908C12.4466 13.8448 13.5477 13.8139 14.6225 14C14.8174 14.0374 15.0192 13.9961 15.1837 13.885C15.3481 13.774 15.4619 13.6022 15.5 13.4075C15.5161 13.3099 15.5127 13.2102 15.49 13.114C15.4674 13.0177 15.426 12.9269 15.3681 12.8468C15.3102 12.7666 15.2371 12.6987 15.1529 12.6469C15.0687 12.5951 14.9751 12.5605 14.8775 12.545Z" fill="white"/>
</svg>
